HIERARCHY
ROOT Hips
{
	OFFSET 0.000000 0.000000 0.000000 
	CHANNELS 6 Xposition Yposition Zposition Zrotation Yrotation Xrotation
	JOINT LeftUpLeg
	{
		OFFSET 1.363060 -1.794630 0.839290 
		CHANNELS 3 Zrotation Yrotation Xrotation
		JOINT LeftLeg
		{
			OFFSET 2.448110 -6.726130 0.000000 
			CHANNELS 3 Zrotation Yrotation Xrotation
			JOINT LeftFoot
			{
				OFFSET 2.562200 -7.039590 0.000000 
				CHANNELS 3 Zrotation Yrotation Xrotation
				JOINT LeftToeBase
				{
					OFFSET 0.157640 -0.433110 2.322550 
					CHANNELS 3 Zrotation Yrotation Xrotation
					End Site
					{
						OFFSET 0.000000 0.000000 0.000000 
					}
				}
			}
		}
	}
	JOINT RightUpLeg
	{
		OFFSET -1.305520 -1.794630 0.839290 
		CHANNELS 3 Zrotation Yrotation Xrotation
		JOINT RightLeg
		{
			OFFSET -2.542530 -6.985550 0.000000 
			CHANNELS 3 Zrotation Yrotation Xrotation
			JOINT RightFoot
			{
				OFFSET -2.568260 -7.056230 0.000000 
				CHANNELS 3 Zrotation Yrotation Xrotation
				JOINT RightToeBase
				{
					OFFSET -0.164730 -0.452590 2.363150 
					CHANNELS 3 Zrotation Yrotation Xrotation
					End Site
					{
						OFFSET 0.000000 0.000000 0.000000 
					}
				}
			}
		}
	}
	JOINT Spine
	{
		OFFSET 0.028270 2.035590 -0.193380 
		CHANNELS 3 Zrotation Yrotation Xrotation
		JOINT Spine1
		{
			OFFSET 0.056720 2.048850 -0.042750 
			CHANNELS 3 Zrotation Yrotation Xrotation
			JOINT Neck1
			{
				OFFSET -0.054170 1.746240 0.172020 
				CHANNELS 3 Zrotation Yrotation Xrotation
				JOINT Head
				{
					OFFSET 0.104070 1.761360 -0.123970 
					CHANNELS 3 Zrotation Yrotation Xrotation
					End Site
					{
						OFFSET 0.000000 0.000000 0.000000 
					}
				}
			}
			JOINT LeftArm
			{
				OFFSET 3.362410 1.200890 -0.311210 
				CHANNELS 3 Zrotation Yrotation Xrotation
				JOINT LeftForeArm
				{
					OFFSET 4.983000 -0.000000 -0.000000 
					CHANNELS 3 Zrotation Yrotation Xrotation
					JOINT LeftHand
					{
						OFFSET 3.483560 -0.000000 -0.000000 
						CHANNELS 3 Zrotation Yrotation Xrotation
						JOINT LeftHandIndex1
						{
							OFFSET 0.715260 -0.000000 -0.000000 
							CHANNELS 3 Zrotation Yrotation Xrotation
							End Site
							{
								OFFSET 0.000000 0.000000 0.000000 
							}
						}
					}
				}
			}
			JOINT RightArm
			{
				OFFSET -3.136600 1.374050 -0.404650 
				CHANNELS 3 Zrotation Yrotation Xrotation
				JOINT RightForeArm
				{
					OFFSET -5.241900 -0.000000 -0.000000 
					CHANNELS 3 Zrotation Yrotation Xrotation
					JOINT RightHand
					{
						OFFSET -3.444170 -0.000000 -0.000000 
						CHANNELS 3 Zrotation Yrotation Xrotation
						JOINT RightHandIndex1
						{
							OFFSET -0.622530 -0.000000 -0.000000 
							CHANNELS 3 Zrotation Yrotation Xrotation
							End Site
							{
								OFFSET 0.000000 0.000000 0.000000 
							}
						}
					}
				}
			}
		}
	}
}
MOTION
Frames: 17
Frame Time: 0.041667
0.858778 17.979621 -4.806228 -4.436505 3.997850 -0.836921 -10.335700 -1.787109 -4.247321 0.758029 7.050393 18.855429 0.725963 -3.231995 -4.776002 0.384600 -3.982700 -11.028000 21.771314 1.195716 -1.256897 -1.516420 -7.155505 17.957384 -0.099045 -1.831199 -6.565591 -0.249500 3.213900 -8.874900 2.682981 -1.592554 -3.140683 3.266492 -0.798778 -7.891384 11.582654 -13.881437 9.512220 6.619000 -6.682200 10.182500 -90.705263 -62.556300 57.609887 20.731295 -38.994665 -7.074520 1.989681 0.579182 9.411457 -7.125000 0.000000 0.000000 75.432020 65.189190 49.528534 -25.825929 43.536991 -10.641717 0.614340 0.140628 8.235388 7.125000 0.000000 0.000000 
0.871645 17.977263 -4.811434 -4.487017 3.906040 -0.786052 -10.293895 -1.771211 -4.353128 0.744200 7.012611 18.751222 0.734644 -3.371530 -4.455666 0.412000 -4.120100 -11.414900 21.828321 1.483712 -1.385045 -1.548424 -7.244268 18.242054 -0.085070 -1.993102 -6.730938 -0.278700 3.395600 -9.382100 2.765007 -1.691155 -3.018533 3.439146 -0.844627 -7.356315 11.577482 -13.977805 9.316786 6.564600 -6.711300 10.133600 -90.272496 -62.838377 57.012232 20.574757 -39.011137 -7.026859 2.005146 0.592947 9.575578 -7.125000 0.000000 0.000000 75.461006 65.599348 49.094844 -25.560326 43.406172 -10.494103 0.641186 0.111119 9.043965 7.125000 0.000000 0.000000 
0.889817 17.975790 -4.812613 -4.163537 3.948699 -0.724049 -10.700372 -1.795422 -4.394413 0.729581 6.965502 18.634288 0.730514 -3.417764 -4.141917 0.416100 -4.140300 -11.471800 21.404837 1.546101 -1.512044 -1.573287 -7.333375 18.497351 -0.088207 -2.007794 -6.947649 -0.274600 3.370500 -9.312000 2.709463 -1.821739 -3.017391 3.606884 -0.897609 -7.195034 11.650318 -14.076344 8.881197 6.560200 -6.760900 9.890600 -90.195274 -62.699684 56.885162 20.542579 -38.940475 -6.995018 2.006509 0.587414 9.793338 -7.125000 0.000000 0.000000 75.470669 65.743227 48.978851 -25.463958 43.355412 -10.438871 0.651603 0.101744 9.260885 7.125000 0.000000 0.000000 
0.909953 17.975593 -4.813693 -3.905073 3.786542 -0.745245 -11.060933 -1.650327 -4.323742 0.720013 6.935289 18.553204 0.711226 -3.319874 -3.907299 0.391100 -4.015600 -11.120500 21.030705 1.674930 -1.527496 -1.597172 -7.417361 18.732568 -0.104249 -1.873068 -7.050479 -0.246400 3.194100 -8.819500 2.635947 -1.838933 -3.063600 3.679392 -0.891209 -7.306460 12.047690 -14.174145 8.288004 6.727700 -6.819700 9.550600 -90.155103 -62.405541 56.886168 20.579728 -38.876728 -6.989481 1.995991 0.595798 9.940926 -7.125000 0.000000 0.000000 75.907201 65.632860 49.101948 -25.175912 43.103966 -10.261317 0.661959 0.105553 9.320575 7.125000 0.000000 0.000000 
0.925767 17.977263 -4.816247 -3.905659 3.593195 -0.758960 -11.105400 -1.442676 -4.342164 0.713931 6.918887 18.501347 0.687746 -3.168798 -3.707687 0.380600 -3.962200 -10.970300 20.986512 1.874036 -1.607037 -1.625453 -7.491781 18.968136 -0.107307 -1.837831 -7.056333 -0.250200 3.218600 -8.888100 2.647323 -1.875563 -2.990480 3.765477 -0.926645 -7.009540 12.107656 -14.509814 8.120397 6.643100 -6.935500 9.669600 -89.651244 -62.802846 56.219968 20.483660 -38.974784 -6.982081 2.004112 0.641219 9.914848 -7.125000 0.000000 0.000000 75.276550 66.872699 49.198431 -25.103394 43.248389 -10.293392 0.616161 0.068677 8.217956 7.125000 0.000000 0.000000 
0.948162 17.979424 -4.817327 -3.856583 3.450773 -0.739282 -11.227839 -1.239921 -4.461886 0.718518 6.926661 18.533793 0.664976 -3.030145 -3.500310 0.375500 -3.935500 -10.895200 20.852440 1.858597 -1.800362 -1.650926 -7.558734 19.181723 -0.113254 -1.756691 -6.985715 -0.309600 3.577100 -9.889700 2.658832 -1.967335 -3.037483 3.843847 -0.968922 -6.997555 12.093435 -14.780226 7.666477 6.611300 -7.086100 9.469000 -89.303394 -62.688326 55.681501 20.407006 -38.905046 -6.949501 1.995479 0.636368 10.019180 -7.125000 0.000000 0.000000 74.996006 67.230509 49.679273 -25.237683 43.407388 -10.411803 0.583905 0.050437 7.294243 7.125000 0.000000 0.000000 
0.973897 17.981683 -4.822337 -3.904660 3.130924 -0.675265 -11.251922 -0.906483 -4.685565 0.727715 6.947651 18.605171 0.637783 -2.876006 -3.157880 0.355400 -3.829900 -10.598700 20.831692 2.020785 -2.013774 -1.682703 -7.631697 19.424609 -0.120687 -1.664028 -6.944014 -0.336700 3.729100 -10.315600 2.650085 -1.897512 -2.983798 3.703909 -0.936834 -6.909012 12.310218 -15.156420 7.313816 6.619900 -7.245700 9.410600 -88.990405 -62.826827 55.287968 20.258685 -38.846442 -6.900682 1.996115 0.628403 10.136018 -7.125000 0.000000 0.000000 75.601760 67.011866 49.112562 -24.696913 42.937643 -10.056340 0.628250 0.056954 8.158244 7.125000 0.000000 0.000000 
0.992854 17.981094 -4.831374 -3.985949 2.641134 -0.582336 -11.209915 -0.445238 -4.976767 0.733751 6.966366 18.656410 0.620891 -2.783462 -2.865253 0.336400 -3.727300 -10.310600 20.896305 2.534458 -2.209636 -1.725678 -7.710920 19.717457 -0.119574 -1.661250 -6.961572 -0.337000 3.730700 -10.320400 2.641269 -1.774220 -2.874040 3.714924 -0.922275 -6.338992 12.865979 -15.582106 7.157256 6.723900 -7.380100 9.605800 -88.565189 -63.348159 54.899253 20.147008 -38.920384 -6.878511 2.015236 0.655079 10.111830 -7.125000 0.000000 0.000000 74.342491 68.651451 48.630303 -24.713165 43.158376 -10.110374 0.582107 -0.000197 7.314642 7.125000 0.000000 0.000000 
1.015937 17.976969 -4.836678 -3.778587 2.303436 -0.585751 -11.530759 -0.057590 -5.131822 0.743119 6.992943 18.736267 0.614855 -2.768748 -2.675492 0.336300 -3.726500 -10.308500 20.561260 2.718777 -2.296955 -1.760252 -7.796995 19.989425 -0.137036 -1.469404 -6.933903 -0.388200 4.001000 -11.079600 2.581357 -1.780144 -2.769375 3.803549 -0.979437 -5.886312 13.420903 -16.001190 6.945721 6.864800 -7.540400 9.703900 -88.306737 -63.603387 54.488257 20.057910 -38.927144 -6.847632 2.024822 0.667541 10.252300 -7.125000 0.000000 0.000000 71.950055 69.851550 48.037143 -25.277517 43.516558 -10.382782 0.523845 -0.012869 5.906026 7.125000 0.000000 0.000000 
1.047172 17.973629 -4.839624 -3.427467 2.287311 -0.634312 -12.046525 0.194138 -5.181248 0.753814 7.009900 18.814870 0.618422 -2.855123 -2.393030 0.328600 -3.684000 -10.189300 19.970682 2.372649 -2.395300 -1.781922 -7.889517 20.226836 -0.179950 -1.025529 -6.905023 -0.411000 4.115200 -11.400900 2.442111 -1.847181 -2.864269 3.726415 -0.988954 -6.252129 13.684024 -16.414969 6.582059 6.941500 -7.763400 9.535800 -88.170790 -63.311143 54.295163 20.063816 -38.844138 -6.842501 2.004883 0.657181 10.322060 -7.125000 0.000000 0.000000 72.859428 69.452572 48.427153 -25.225437 43.542568 -10.388928 0.537982 -0.013245 6.217235 7.125000 0.000000 0.000000 
1.057683 17.974709 -4.838937 -3.421160 1.982203 -0.591544 -12.050989 0.611772 -5.397588 0.759825 7.023472 18.860137 0.625501 -2.937635 -2.206436 0.326600 -3.673000 -10.158400 20.000453 2.833186 -2.408119 -1.813787 -7.961790 20.466426 -0.169008 -1.170719 -7.063880 -0.393300 4.026800 -11.151900 2.430918 -1.808688 -3.024245 3.803881 -0.942094 -6.668189 13.944884 -16.795241 6.266838 7.040000 -7.988900 9.335100 -87.824269 -62.987831 54.203652 20.209633 -38.897744 -6.901673 1.989187 0.667818 10.043485 -7.125000 0.000000 0.000000 73.162509 69.212282 48.991458 -25.151440 43.451980 -10.350804 0.540649 -0.006136 6.053785 7.125000 0.000000 0.000000 
1.074872 17.979326 -4.850429 -3.610553 1.632085 -0.499124 -11.880465 0.947405 -5.579478 0.742208 6.973958 18.709215 0.620569 -2.901107 -2.095929 0.350200 -3.802100 -10.520400 20.180006 3.068444 -2.713369 -1.854848 -8.029929 20.732023 -0.170431 -1.115794 -6.977400 -0.398300 4.052300 -11.223700 2.483480 -1.785450 -3.095090 3.829120 -0.937174 -6.744111 14.250968 -17.177150 6.060739 7.129700 -8.183200 9.307500 -87.315445 -63.023463 53.741573 20.302894 -39.016580 -6.940506 2.000576 0.683612 9.905241 -7.125000 0.000000 0.000000 72.669957 69.759370 49.271682 -25.086025 43.388591 -10.290985 0.526581 -0.004472 5.673798 7.125000 0.000000 0.000000 
1.090097 17.984630 -4.868502 -3.844967 1.290091 -0.377057 -11.647757 1.179664 -5.714915 0.718249 6.905992 18.504301 0.610814 -2.826449 -1.944537 0.337500 -3.733500 -10.328100 20.394097 3.213941 -3.149126 -1.898115 -8.093729 20.994389 -0.180942 -0.930299 -6.762461 -0.343400 3.765700 -10.418500 2.525339 -1.740716 -3.127613 3.798446 -0.907102 -6.751246 14.686054 -17.610926 5.551013 7.257700 -8.398200 9.197400 -86.905315 -63.081657 53.026990 20.296560 -39.041007 -6.932370 2.013918 0.665692 10.066596 -7.125000 0.000000 0.000000 73.546144 70.146228 49.596889 -24.608357 43.166007 -10.052540 0.533771 -0.031163 6.155602 7.125000 0.000000 0.000000 
1.118287 17.986496 -4.849545 -3.115237 1.153560 -0.553579 -12.590483 1.469069 -5.302213 0.690635 6.813386 18.247026 0.608689 -2.821766 -1.956296 0.321900 -3.647000 -10.085600 19.370421 2.659496 -3.185334 -1.916588 -8.204596 21.247959 -0.252215 -0.228204 -6.975059 -0.191800 2.820100 -7.778400 2.305511 -1.824129 -3.075372 3.871077 -0.933389 -6.599467 15.157813 -18.091702 4.720157 7.409000 -8.670000 8.859400 -86.838218 -62.938046 52.644056 20.268885 -38.972427 -6.908990 2.009866 0.647288 10.148628 -7.125000 0.000000 0.000000 74.374808 70.148259 49.885164 -24.244323 42.970035 -9.890954 0.537057 -0.067583 6.487495 7.125000 0.000000 0.000000 
1.136950 17.989738 -4.847581 -2.911226 0.976530 -0.552214 -12.879960 1.826953 -5.284522 0.666117 6.736995 18.026314 0.609656 -2.840601 -1.840943 0.342000 -3.758000 -10.396800 19.064393 2.706291 -3.355595 -1.951295 -8.294742 21.526411 -0.233958 -0.349429 -6.721985 -0.329400 3.688800 -10.202800 2.261230 -1.899375 -2.937597 3.981301 -0.990936 -6.130351 15.562977 -18.729406 4.328678 7.415500 -8.937600 8.961600 -86.660962 -63.430510 51.825015 20.186637 -39.058941 -6.892346 2.022258 0.687497 10.186361 -7.125000 0.000000 0.000000 74.149913 71.096388 49.528208 -24.150512 43.050925 -9.851693 0.513905 -0.113419 6.673155 7.125000 0.000000 0.000000 
1.152175 17.991408 -4.856715 -2.919621 0.857072 -0.473777 -12.896858 2.173459 -5.413933 0.640782 6.661865 17.805813 0.619505 -2.936436 -1.632498 0.345200 -3.775100 -10.444700 19.027967 2.824955 -3.668850 -1.992551 -8.376697 21.819002 -0.212716 -0.554420 -6.676162 -0.302100 3.533800 -9.768700 2.215242 -1.928860 -2.991959 3.983670 -1.004097 -6.174750 16.353320 -19.179095 3.676844 7.730300 -9.203000 8.715900 -86.609691 -63.028819 51.771758 20.399952 -39.142823 -6.968316 2.017482 0.672736 10.178817 -7.125000 0.000000 0.000000 74.292250 71.063434 49.675056 -24.137419 43.038416 -9.826995 0.518605 -0.080718 6.505706 7.125000 0.000000 0.000000 
1.164747 17.991211 -4.865850 -2.982846 0.612186 -0.412963 -12.843619 2.516001 -5.585705 0.633126 6.638945 17.737351 0.630314 -3.030263 -1.525952 0.337800 -3.735000 -10.332300 19.063038 3.007884 -3.881054 -2.029651 -8.451688 22.083950 -0.214989 -0.611897 -7.027468 -0.142100 2.429700 -6.694900 2.178525 -1.896792 -3.020221 3.946953 -0.996933 -6.123279 17.086043 -19.609712 2.878931 8.006800 -9.456700 8.465000 -86.213352 -62.865061 51.497972 20.572339 -39.271127 -7.045599 2.022693 0.642177 10.026003 -7.125000 0.000000 0.000000 74.212428 71.340190 49.746178 -24.046008 42.995341 -9.800858 0.493395 -0.119908 6.091729 7.125000 0.000000 0.000000 
